<?xml version="1.0" encoding="ISO-8859-1" standalone="no"?>
<!DOCTYPE svg PUBLIC "-//W3C//DTD SVG 1.1//EN" "http://www.w3.org/Graphics/SVG/1.1/DTD/svg11.dtd">
<svg version="1.1" id="Layer_1" xmlns="http://www.w3.org/2000/svg" xmlns:xlink="http://www.w3.org/1999/xlink" x="0px" y="0px" width="595.28px" height="488.889px" viewBox="0 0 595.28 488.889" xml:space="preserve">
<g>
	<polygon fill="#CDDDF2" points="483.431,352.109 297.852,459.253 112.273,352.109 112.273,137.82 297.852,30.676 483.431,137.82 	
		"/>
	<path fill="#231F20" d="M250.884,375.84c-0.344-0.595-0.145-1.339,0.451-1.684l0.236-0.136c0.458-0.264,0.913-0.212,1.29-0.005
		l5.003,2.711l0.16-5.71c0.013-0.488,0.214-0.845,0.644-1.094l0.235-0.136c0.596-0.344,1.34-0.144,1.684,0.451l4.45,7.708
		c0.344,0.595,0.145,1.339-0.451,1.684c-0.582,0.336-1.333,0.122-1.669-0.459l-2.793-4.838l-0.207,3.963
		c-0.029,0.461-0.187,0.829-0.575,1.053c-0.388,0.224-0.786,0.176-1.2-0.029l-3.484-1.777l2.785,4.824
		c0.336,0.583,0.129,1.312-0.453,1.649c-0.582,0.336-1.304,0.143-1.64-0.44L250.884,375.84z"/>
	<g>
		<path fill="#231F20" d="M291.56,366.164v-0.032c0-3.186,2.514-5.794,5.971-5.794c3.458,0,5.939,2.576,5.939,5.762v0.032
			c0,3.185-2.513,5.794-5.971,5.794C294.042,371.926,291.56,369.35,291.56,366.164z M300.892,366.164v-0.032
			c0-1.921-1.408-3.521-3.394-3.521c-1.984,0-3.361,1.568-3.361,3.489v0.032c0,1.921,1.409,3.521,3.393,3.521
			C299.516,369.653,300.892,368.084,300.892,366.164z"/>
	</g>
	<path fill="#231F20" d="M333.731,370.408c0.03-0.148,0.077-0.325,0.149-0.45c0.344-0.596,1.099-0.751,1.695-0.407
		c0.499,0.288,0.717,0.838,0.599,1.362l-1.507,7.06l5.342-4.771c0.455-0.404,1.029-0.534,1.57-0.221l0.166,0.096
		c0.541,0.312,0.723,0.861,0.593,1.47l-1.461,7.011l5.361-4.834c0.378-0.335,0.939-0.474,1.466-0.17
		c0.582,0.336,0.797,1.051,0.461,1.633c-0.072,0.125-0.21,0.268-0.323,0.368l-7.119,6.055c-0.506,0.429-1.1,0.53-1.613,0.233
		l-0.222-0.128c-0.512-0.296-0.717-0.839-0.591-1.506l1.296-6.663l-5.122,4.454c-0.514,0.443-1.086,0.538-1.6,0.241l-0.222-0.128
		c-0.513-0.296-0.723-0.862-0.604-1.514L333.731,370.408z"/>
	<circle fill="none" cx="299.521" cy="246.657" r="0.526"/>
	<g>
		<path fill="#4062AD" d="M298.02,251.911c2.896,0,5.253-2.356,5.253-5.253c0-2.897-2.356-5.255-5.253-5.255
			c-2.897,0-5.254,2.358-5.254,5.255C292.766,249.554,295.123,251.911,298.02,251.911z M298.02,246.131
			c0.289,0,0.525,0.235,0.525,0.526c0,0.289-0.236,0.525-0.525,0.525c-0.29,0-0.526-0.235-0.526-0.525
			C297.494,246.367,297.729,246.131,298.02,246.131z"/>
		<path fill="#4062AD" d="M394.476,171.665c0-1.305-1.058-2.364-2.364-2.364H203.515c-1.306,0-2.364,1.059-2.364,2.364
			s1.058,2.364,2.364,2.364h188.597C393.418,174.029,394.476,172.97,394.476,171.665z"/>
		<path fill="#4062AD" d="M374.831,102.531l-75.884-43.812c-0.003-0.002-0.007-0.002-0.01-0.004
			c-0.089-0.05-0.182-0.089-0.277-0.124c-0.013-0.005-0.023-0.015-0.036-0.019c-0.005-0.002-0.009-0.001-0.014-0.002
			c-0.025-0.008-0.051-0.014-0.077-0.021c-0.041-0.012-0.082-0.018-0.123-0.027c-0.099-0.021-0.198-0.035-0.299-0.04
			c-0.023-0.001-0.045-0.008-0.068-0.008c-0.027,0-0.054,0.003-0.082,0.004c-0.128,0.004-0.255,0.019-0.381,0.05
			c-0.015,0.004-0.03,0.004-0.044,0.007c-0.01,0.003-0.02,0.007-0.03,0.01c-0.016,0.005-0.03,0.013-0.046,0.018
			c-0.112,0.035-0.222,0.081-0.328,0.139c-0.014,0.007-0.029,0.01-0.042,0.018l-74.661,43.106c-0.889,0.513-1.192,1.648-0.679,2.536
			c0.513,0.89,1.65,1.193,2.536,0.679l66.353-38.309l-28.22,36.002c-0.632,0.808-0.491,1.975,0.315,2.608
			c0.81,0.632,1.975,0.492,2.608-0.315l30.82-39.32v38.433c0,1.025,0.832,1.857,1.857,1.857c1.025,0,1.857-0.832,1.857-1.857V65.707
			l30.819,39.32c0.366,0.467,0.911,0.711,1.463,0.711c0.4,0,0.804-0.129,1.145-0.395c0.806-0.632,0.948-1.8,0.316-2.608
			l-28.219-36.002l67.576,39.015c0.293,0.169,0.612,0.249,0.927,0.249c0.641,0,1.266-0.332,1.609-0.928
			C376.023,104.179,375.72,103.044,374.831,102.531z"/>
		<path fill="#4062AD" d="M374.287,385.457c-0.511-0.89-1.65-1.193-2.536-0.68l-66.35,38.307l28.218-36
			c0.632-0.808,0.491-1.975-0.315-2.608c-0.81-0.631-1.975-0.491-2.608,0.315l-30.82,39.32v-38.432c0-1.025-0.832-1.857-1.857-1.857
			c-1.025,0-1.857,0.832-1.857,1.857v38.431l-30.82-39.319c-0.632-0.806-1.798-0.948-2.608-0.315
			c-0.806,0.632-0.948,1.8-0.315,2.608l28.218,36l-67.573-39.013c-0.887-0.513-2.024-0.209-2.536,0.679
			c-0.513,0.889-0.209,2.024,0.679,2.536l75.883,43.811c0.018,0.01,0.038,0.013,0.056,0.023c0.066,0.035,0.133,0.063,0.202,0.09
			c0.023,0.009,0.041,0.026,0.064,0.034c0.019,0.007,0.039,0.004,0.058,0.01c0.035,0.011,0.067,0.025,0.102,0.033
			c0.144,0.036,0.291,0.057,0.439,0.057l0.007,0.001l0.001,0l0.001,0c0,0,0.002,0,0.003,0c0.151,0,0.299-0.022,0.444-0.058
			c0.031-0.008,0.061-0.021,0.092-0.03c0.041-0.013,0.08-0.029,0.122-0.045c0.072-0.028,0.143-0.056,0.211-0.092
			c0.018-0.01,0.038-0.013,0.056-0.023l74.66-43.105C374.496,387.481,374.8,386.345,374.287,385.457z"/>
		<circle fill="#4062AD" cx="379.296" cy="381.961" r="2.328"/>
		<circle fill="#4062AD" cx="215.783" cy="381.961" r="2.328"/>
		<path fill="#4062AD" d="M487.002,132.757L301.424,25.613c-2.106-1.216-4.703-1.216-6.809,0l-185.58,107.145
			c-2.107,1.216-3.404,3.464-3.404,5.896v214.289c0,2.432,1.297,4.68,3.404,5.896l185.58,107.144
			c1.053,0.609,2.229,0.913,3.404,0.913c1.175,0,2.351-0.305,3.404-0.913l185.579-107.144c2.107-1.216,3.405-3.464,3.405-5.896
			V138.653C490.407,136.221,489.11,133.973,487.002,132.757z M298.019,39.372l178.77,103.213v30.262h-21.867
			c-1.306,0-2.364,1.059-2.364,2.364v7.092H425.47v-55.16c0-1.305-1.058-2.364-2.364-2.364h-252.95
			c-1.306,0-2.364,1.059-2.364,2.364v55.16h-27.088v-7.092c0-1.305-1.058-2.364-2.364-2.364h-19.092v-30.262L298.019,39.372z
			 M458.304,297.09h16.135v11.82h-16.135V297.09z M458.304,292.362v-11.82h16.135v11.82H458.304z M476.789,238.528l-0.311-0.539
			h0.311V238.528z M473.748,233.262l-2.579-4.466h5.62v4.466H473.748z M471.17,224.067l3.033-5.253h2.586v5.253H471.17z
			 M476.789,204.88l-11.761,20.37c-0.016,0.027-0.021,0.057-0.035,0.085c-0.068,0.127-0.122,0.261-0.166,0.401
			c-0.015,0.047-0.032,0.093-0.044,0.141c-0.043,0.179-0.073,0.363-0.073,0.556c0,0.192,0.029,0.377,0.073,0.556
			c0.012,0.048,0.029,0.094,0.044,0.141c0.043,0.14,0.098,0.273,0.166,0.401c0.014,0.027,0.019,0.058,0.035,0.085l11.761,20.371
			v27.83H455.94c-1.306,0-2.364,1.059-2.364,2.364v16.548v16.548c0,1.305,1.058,2.364,2.364,2.364h20.849v23.114h-30.338V196.487
			h8.471h21.867V204.88z M121.536,218.814l3.033,5.253h-5.321v-5.253H121.536z M124.569,228.795l-2.579,4.466h-2.742v-4.466H124.569
			z M119.26,237.99l-0.012,0.021v-0.021H119.26z M134.958,292.362H121.3v-11.82h13.659V292.362z M134.958,297.09v11.82H121.3v-11.82
			H134.958z M119.248,313.638h18.074c1.306,0,2.364-1.059,2.364-2.364v-16.548v-16.548c0-1.305-1.058-2.364-2.364-2.364h-18.074
			v-28.348l11.462-19.853c0.016-0.027,0.021-0.057,0.035-0.085c0.067-0.128,0.122-0.261,0.166-0.401
			c0.015-0.047,0.032-0.093,0.044-0.141c0.043-0.179,0.073-0.363,0.073-0.556c0-0.192-0.029-0.377-0.073-0.556
			c-0.012-0.048-0.029-0.094-0.044-0.141c-0.043-0.14-0.098-0.273-0.166-0.401c-0.014-0.027-0.019-0.058-0.035-0.085l-11.462-19.852
			v-8.91h19.092h8.471v140.265h-27.563V313.638z M135.976,184.667v7.092h-16.728v-14.184h16.728V184.667z M149.175,191.759h-8.471
			v-4.728h27.088v144.205v5.516H151.54V194.123C151.54,192.818,150.481,191.759,149.175,191.759z M420.742,184.667v144.205h-3.152
			v-12.214c0-1.305-1.058-2.364-2.364-2.364h-5.516V302.08c0-1.305-1.058-2.364-2.364-2.364h-5.516v-12.214
			c0-1.305-1.058-2.364-2.364-2.364h-4.728v-88.651h4.728c1.306,0,2.364-1.059,2.364-2.364v-7.092h5.516
			c1.306,0,2.364-1.059,2.364-2.364v-26.004c0-1.305-1.058-2.364-2.364-2.364h-217.49c-1.306,0-2.364,1.059-2.364,2.364v26.004
			c0,1.305,1.058,2.364,2.364,2.364h5.516v7.092c0,1.305,1.058,2.364,2.364,2.364h4.728v88.651h-4.728
			c-1.306,0-2.364,1.059-2.364,2.364v12.214h-5.516c-1.306,0-2.364,1.059-2.364,2.364v12.214h-9.194
			c-1.306,0-2.364,1.059-2.364,2.364v12.214h-3.414V184.667v-55.161h248.222V184.667z M204.828,191.759H200.1v-4.728h32.308v4.728
			h-4.728c-1.306,0-2.364,1.059-2.364,2.364v91.015h-18.124v-91.015C207.192,192.818,206.134,191.759,204.828,191.759z
			 M192.22,182.303v-21.276h212.762v21.276h-5.516h-36.248H234.773h-37.036H192.22z M390.01,194.123v91.015h-17.336v-91.015
			c0-1.305-1.058-2.364-2.364-2.364h-4.728v-4.728h31.52v4.728h-4.728C391.068,191.759,390.01,192.818,390.01,194.123z
			 M320.928,263.431h14.607l-12.171,21.081h-2.436V263.431z M338.264,258.703h-17.336v-13.95h25.391L338.264,258.703z
			 M320.928,240.024v-15.549h16.413l8.978,15.549H320.928z M320.928,219.747v-19.48h2.436l11.247,19.48H320.928z M316.2,242.388
			v42.123h-34.672v-23.445v-18.678v-20.277v-21.844H316.2V242.388z M276.799,219.747h-13.322l11.247-19.48h2.075V219.747z
			 M260.748,224.475h16.052v15.549H251.77L260.748,224.475z M276.799,244.752v13.95h-16.975l-8.054-13.95H276.799z M276.799,263.431
			v21.081h-2.075l-12.171-21.081H276.799z M352.46,243.57c0.016-0.027,0.02-0.057,0.035-0.085c0.067-0.128,0.122-0.261,0.166-0.401
			c0.015-0.047,0.032-0.093,0.044-0.141c0.043-0.179,0.073-0.363,0.073-0.556c0-0.192-0.029-0.377-0.073-0.556
			c-0.012-0.048-0.029-0.094-0.044-0.141c-0.043-0.14-0.098-0.273-0.166-0.4c-0.014-0.027-0.019-0.058-0.035-0.085l-25.684-44.486
			c-0.422-0.731-1.202-1.182-2.047-1.182h-6.165h-39.4h-5.804c-0.845,0-1.625,0.451-2.047,1.182l-25.684,44.486
			c-0.015,0.027-0.02,0.057-0.035,0.084c-0.068,0.128-0.122,0.261-0.166,0.402c-0.015,0.047-0.032,0.092-0.044,0.141
			c-0.043,0.179-0.073,0.363-0.073,0.556c0,0.192,0.029,0.377,0.073,0.556c0.012,0.048,0.029,0.093,0.044,0.14
			c0.043,0.14,0.098,0.274,0.166,0.402c0.014,0.027,0.019,0.057,0.035,0.084l23.999,41.567h-39.582v-88.651h4.728
			c1.306,0,2.364-1.059,2.364-2.364v-7.092h123.717v7.092c0,1.305,1.058,2.364,2.364,2.364h4.728v88.651h-39.485L352.46,243.57z
			 M392.374,289.866h4.728v9.85H200.1v-9.85h4.728H392.374z M399.466,304.444h5.516v9.85H192.22v-9.85h5.516H399.466z
			 M407.346,319.022h5.516v9.85h-232.2v-9.85h9.194H407.346z M172.52,339.116V333.6h5.778h236.928h5.516v5.516v4.334H172.52V339.116
			z M425.47,331.236V187.031h27.088v4.728h-8.471c-1.306,0-2.364,1.059-2.364,2.364v142.629H425.47V331.236z M457.286,191.759
			v-7.092v-7.092h19.503v14.184H457.286z M298.019,452.225L119.248,349.011v-7.53h29.926h0.001h18.617v4.334
			c0,1.305,1.058,2.364,2.364,2.364h252.95c1.306,0,2.364-1.059,2.364-2.364v-4.334h18.617h0.001h32.701v7.53L298.019,452.225z"/>
		<path fill="#4062AD" d="M231.099,149.847c0.794,0,1.437-0.643,1.437-1.438v-7.087l5.822,7.635
			c0.397,0.511,0.813,0.851,1.512,0.851h0.095c0.813,0,1.455-0.642,1.455-1.456v-10.527c0-0.794-0.643-1.438-1.437-1.438
			c-0.793,0-1.436,0.643-1.436,1.438v6.823l-5.614-7.371c-0.397-0.511-0.813-0.851-1.512-0.851h-0.302
			c-0.813,0-1.456,0.643-1.456,1.456v10.527C229.662,149.203,230.305,149.847,231.099,149.847z"/>
		<path fill="#4062AD" d="M251.029,149.959c4.083,0,7.051-3.08,7.051-6.841v-0.038c0-3.762-2.93-6.804-7.012-6.804
			c-4.083,0-7.051,3.081-7.051,6.843v0.037C244.017,146.916,246.947,149.959,251.029,149.959z M247.06,143.079
			c0-2.269,1.626-4.12,3.969-4.12c2.344,0,4.008,1.89,4.008,4.159v0.037c0,2.269-1.626,4.12-3.969,4.12
			c-2.344,0-4.008-1.89-4.008-4.157V143.079z"/>
		<path fill="#4062AD" d="M262.134,149.733h3.704c4.159,0,7.031-2.892,7.031-6.615v-0.038c0-3.723-2.873-6.578-7.031-6.578h-3.704
			c-0.813,0-1.456,0.643-1.456,1.456v10.32C260.678,149.089,261.32,149.733,262.134,149.733z M263.589,139.129h2.249
			c2.382,0,3.988,1.645,3.988,3.989v0.037c0,2.344-1.606,3.951-3.988,3.951h-2.249V139.129z"/>
		<path fill="#4062AD" d="M276.923,149.733h7.428c0.718,0,1.304-0.566,1.304-1.285c0-0.719-0.586-1.305-1.304-1.305h-5.992v-2.778
			h5.047c0.718,0,1.304-0.566,1.304-1.285c0-0.719-0.586-1.304-1.304-1.304h-5.047v-2.684h5.898c0.718,0,1.304-0.568,1.304-1.285
			c0-0.719-0.586-1.305-1.304-1.305h-7.334c-0.813,0-1.456,0.643-1.456,1.456v10.32C275.467,149.089,276.11,149.733,276.923,149.733
			z"/>
		<path fill="#4062AD" d="M287.874,148.334c1.474,1.059,3.233,1.588,4.971,1.588c2.854,0,4.858-1.474,4.858-4.102v-0.039
			c0-2.305-1.512-3.269-4.196-3.969c-2.287-0.586-2.854-0.869-2.854-1.739v-0.037c0-0.643,0.586-1.153,1.701-1.153
			c0.907,0,1.815,0.32,2.778,0.888c0.227,0.132,0.454,0.208,0.737,0.208c0.756,0,1.361-0.586,1.361-1.342
			c0-0.568-0.322-0.963-0.643-1.153c-1.191-0.756-2.59-1.173-4.196-1.173c-2.703,0-4.631,1.588-4.631,3.989v0.037
			c0,2.627,1.72,3.365,4.385,4.045c2.212,0.568,2.666,0.945,2.666,1.682v0.038c0,0.776-0.719,1.248-1.909,1.248
			c-1.285,0-2.382-0.454-3.384-1.191c-0.189-0.132-0.453-0.265-0.831-0.265c-0.757,0-1.361,0.587-1.361,1.342
			C287.326,147.692,287.553,148.108,287.874,148.334z"/>
		<path fill="#4062AD" d="M306.442,149.959c2.117,0,3.515-0.623,4.706-1.662c0.265-0.228,0.491-0.586,0.491-1.04
			c0-0.737-0.623-1.342-1.36-1.342c-0.34,0-0.643,0.132-0.87,0.322c-0.832,0.662-1.644,1.039-2.873,1.039
			c-2.269,0-3.838-1.89-3.838-4.157v-0.038c0-2.269,1.607-4.12,3.838-4.12c1.04,0,1.89,0.34,2.703,0.945
			c0.208,0.132,0.473,0.283,0.87,0.283c0.793,0,1.437-0.623,1.437-1.417c0-0.511-0.265-0.926-0.567-1.153
			c-1.097-0.813-2.439-1.342-4.423-1.342c-4.064,0-6.899,3.081-6.899,6.843v0.037C299.656,146.955,302.548,149.959,306.442,149.959z
			"/>
		<path fill="#4062AD" d="M315.655,149.847c0.813,0,1.455-0.643,1.455-1.456v-3.969h5.368v3.969c0,0.813,0.642,1.456,1.455,1.456
			c0.813,0,1.455-0.643,1.455-1.456v-10.547c0-0.813-0.642-1.456-1.455-1.456c-0.813,0-1.455,0.643-1.455,1.456v3.894h-5.368v-3.894
			c0-0.813-0.642-1.456-1.455-1.456c-0.813,0-1.456,0.643-1.456,1.456v10.547C314.199,149.203,314.842,149.847,315.655,149.847z"/>
		<path fill="#4062AD" d="M335,149.959c4.082,0,7.05-3.08,7.05-6.841v-0.038c0-3.762-2.93-6.804-7.012-6.804
			c-4.083,0-7.05,3.081-7.05,6.843v0.037C327.987,146.916,330.917,149.959,335,149.959z M331.03,143.079
			c0-2.269,1.626-4.12,3.97-4.12c2.343,0,4.007,1.89,4.007,4.159v0.037c0,2.269-1.626,4.12-3.969,4.12
			c-2.344,0-4.008-1.89-4.008-4.157V143.079z"/>
		<path fill="#4062AD" d="M351.074,149.959c4.083,0,7.051-3.08,7.051-6.841v-0.038c0-3.762-2.93-6.804-7.012-6.804
			c-4.083,0-7.051,3.081-7.051,6.843v0.037C344.062,146.916,346.991,149.959,351.074,149.959z M347.105,143.079
			c0-2.269,1.626-4.12,3.969-4.12c2.344,0,4.008,1.89,4.008,4.159v0.037c0,2.269-1.626,4.12-3.969,4.12
			c-2.344,0-4.008-1.89-4.008-4.157V143.079z"/>
		<path fill="#4062AD" d="M362.178,149.733h6.842c0.737,0,1.324-0.586,1.324-1.324c0-0.737-0.586-1.322-1.324-1.322h-5.387v-9.244
			c0-0.813-0.643-1.456-1.455-1.456c-0.813,0-1.456,0.643-1.456,1.456v10.433C360.722,149.089,361.365,149.733,362.178,149.733z"/>
	</g>
</g>
</svg>
